<?xml version="1.0" encoding="UTF-8"?><svg id="Calque_2" xmlns="http://www.w3.org/2000/svg" viewBox="0 0 1080 200"><defs><style>.cls-1{fill:#1e2c5b;}</style></defs><path class="cls-1" d="m177.92,95.58v64.29h-31.18v-54.86c0-9.24-5.78-15.4-14.82-15.4s-15.98,6.35-15.98,15.78v54.48h-31.19v-54.86c0-9.24-5.77-15.4-14.82-15.4s-16.17,6.35-16.17,15.78v54.48h-31.19V61.7h31.19v8.28c7.12-6.93,16.17-10.59,26.76-10.59,12.9,0,23.1,5.2,29.26,14.25,8.08-9.43,18.86-14.25,31.95-14.25,22.14,0,36.19,14.25,36.19,36.19Z"/><path class="cls-1" d="m283.02,99.05v60.83h-28.49v-6.55c-6.16,5.58-15.02,8.86-25.79,8.86-21.56,0-37.92-13.28-37.92-31.38s16.36-31.38,37.15-31.38c9.43,0,17.52,2.7,23.87,7.32v-4.43c0-9.82-7.51-15.98-19.63-15.98-8.66,0-16.17,3.27-21.56,7.7l-15.21-19.25c9.82-9.62,24.45-15.4,40.81-15.4,26.95,0,46.78,15.4,46.78,39.65Zm-31.19,31.76c0-5.39-6.74-9.24-15.02-9.24s-14.05,3.85-14.05,9.24,5.97,9.24,14.05,9.24,15.02-4.04,15.02-9.24Z"/><path class="cls-1" d="m457.23,95.58v64.29h-31.18v-54.86c0-9.24-5.78-15.4-14.82-15.4s-15.98,6.35-15.98,15.78v54.48h-31.19v-54.86c0-9.24-5.77-15.4-14.82-15.4s-16.17,6.35-16.17,15.78v54.48h-31.19V61.7h31.19v8.28c7.12-6.93,16.17-10.59,26.76-10.59,12.9,0,23.1,5.2,29.26,14.25,8.08-9.43,18.86-14.25,31.95-14.25,22.14,0,36.19,14.25,36.19,36.19Z"/><path class="cls-1" d="m562.33,99.05v60.83h-28.49v-6.55c-6.16,5.58-15.01,8.86-25.79,8.86-21.56,0-37.92-13.28-37.92-31.38s16.36-31.38,37.15-31.38c9.43,0,17.52,2.7,23.87,7.32v-4.43c0-9.82-7.51-15.98-19.63-15.98-8.66,0-16.17,3.27-21.56,7.7l-15.21-19.25c9.82-9.62,24.45-15.4,40.81-15.4,26.95,0,46.78,15.4,46.78,39.65Zm-31.19,31.76c0-5.39-6.74-9.24-15.02-9.24s-14.05,3.85-14.05,9.24,5.97,9.24,14.05,9.24,15.02-4.04,15.02-9.24Z"/><path class="cls-1" d="m641.64,60.16v32.15h-4.62c-15.98,0-24.64,8.86-24.64,22.71v44.85h-31.19V61.7h31.19v9.82c6.54-7.32,14.82-11.36,24.64-11.36h4.62Z"/><path class="cls-1" d="m809.49,95.58v64.29h-31.18v-54.86c0-9.24-5.78-15.4-14.82-15.4s-15.98,6.35-15.98,15.78v54.48h-31.19v-54.86c0-9.24-5.77-15.4-14.82-15.4s-16.17,6.35-16.17,15.78v54.48h-31.19V61.7h31.19v8.28c7.12-6.93,16.17-10.59,26.76-10.59,12.9,0,23.1,5.2,29.26,14.25,8.08-9.43,18.86-14.25,31.95-14.25,22.14,0,36.19,14.25,36.19,36.19Z"/><path class="cls-1" d="m826.24,55.52c0-10.2,7.7-17.71,17.9-17.71s17.9,7.51,17.9,17.71-7.7,17.71-17.9,17.71-17.9-7.51-17.9-17.71Zm2.31,25.79h31.19v78.56h-31.19v-78.56Z"/><path class="cls-1" d="m919.98,90.19v30.99c0,6.74,3.66,10.78,11.55,10.78,4.81,0,9.05-1.54,12.51-3.27v29.07c-5.78,3.08-11.74,4.43-19.25,4.43-25.22,0-36-15.01-36-35.8v-36.19h-14.05v-28.49h14.05v-23.68h31.19v23.68h24.06v28.49h-24.06Z"/><path class="cls-1" d="m1056.66,120.22h-70.07c3.27,9.43,11.55,15.21,22.33,15.21,10.01,0,18.09-5,22.33-9.62l20.6,17.9c-10.39,11.36-25.99,18.48-43.89,18.48-31.38,0-54.86-22.33-54.86-51.97s22.52-50.82,52.36-50.82,51.97,21.94,51.97,51.97c0,2.7-.19,6.35-.77,8.86Zm-70.26-19.25h37.73c-2.7-9.24-10.01-15.01-18.87-15.01s-15.98,5.77-18.86,15.01Z"/></svg>